<?xml version="1.0" encoding="UTF-8" standalone="no"?>
<!-- Created with Inkscape (http://www.inkscape.org/) -->

<svg
   xmlns:dc="http://purl.org/dc/elements/1.1/"
   xmlns:cc="http://creativecommons.org/ns#"
   xmlns:rdf="http://www.w3.org/1999/02/22-rdf-syntax-ns#"
   xmlns:svg="http://www.w3.org/2000/svg"
   xmlns="http://www.w3.org/2000/svg"
   xmlns:sodipodi="http://sodipodi.sourceforge.net/DTD/sodipodi-0.dtd"
   xmlns:inkscape="http://www.inkscape.org/namespaces/inkscape"
   width="744.09448819"
   height="1052.3622047"
   id="svg2"
   version="1.1"
   inkscape:version="0.48.3.1 r9886"
   sodipodi:docname="S-u-to-f.svg">
  <sodipodi:namedview
     id="base"
     pagecolor="#ffffff"
     bordercolor="#666666"
     borderopacity="1.0"
     inkscape:pageopacity="0.0"
     inkscape:pageshadow="2"
     inkscape:zoom="1.4"
     inkscape:cx="300.51581"
     inkscape:cy="612.7682"
     inkscape:document-units="px"
     inkscape:current-layer="layer1"
     showgrid="false"
     inkscape:snap-bbox="true"
     inkscape:bbox-nodes="true"
     inkscape:snap-bbox-edge-midpoints="true"
     inkscape:snap-bbox-midpoints="true"
     inkscape:object-paths="true"
     inkscape:object-nodes="true"
     inkscape:snap-midpoints="true"
     inkscape:snap-object-midpoints="true"
     inkscape:snap-center="true"
     inkscape:snap-global="false"
     inkscape:window-width="1215"
     inkscape:window-height="776"
     inkscape:window-x="65"
     inkscape:window-y="24"
     inkscape:window-maximized="1" />
  <defs
     id="defs4">
    <marker
       style="overflow:visible;"
       id="Arrow2Lend"
       refX="0.0"
       refY="0.0"
       orient="auto"
       inkscape:stockid="Arrow2Lend">
      <path
         transform="scale(1.1) rotate(180) translate(1,0)"
         d="M 8.7185878,4.0337352 L -2.2072895,0.016013256 L 8.7185884,-4.0017078 C 6.9730900,-1.6296469 6.9831476,1.6157441 8.7185878,4.0337352 z "
         style="fill-rule:evenodd;stroke-width:0.62500000;stroke-linejoin:round;"
         id="path3792" />
    </marker>
    <marker
       style="overflow:visible"
       id="Arrow1Lstart"
       refX="0.0"
       refY="0.0"
       orient="auto"
       inkscape:stockid="Arrow1Lstart">
      <path
         transform="scale(0.8) translate(12.5,0)"
         style="fill-rule:evenodd;stroke:#000000;stroke-width:1.0pt"
         d="M 0.0,0.0 L 5.0,-5.0 L -12.5,0.0 L 5.0,5.0 L 0.0,0.0 z "
         id="path3771" />
    </marker>
    <marker
       style="overflow:visible;"
       id="Arrow1Lend"
       refX="0.0"
       refY="0.0"
       orient="auto"
       inkscape:stockid="Arrow1Lend">
      <path
         transform="scale(0.8) rotate(180) translate(12.5,0)"
         style="fill-rule:evenodd;stroke:#000000;stroke-width:1.0pt;"
         d="M 0.0,0.0 L 5.0,-5.0 L -12.5,0.0 L 5.0,5.0 L 0.0,0.0 z "
         id="path3774" />
    </marker>
  </defs>
  <metadata
     id="metadata7">
    <rdf:RDF>
      <cc:Work
         rdf:about="">
        <dc:format>image/svg+xml</dc:format>
        <dc:type
           rdf:resource="http://purl.org/dc/dcmitype/StillImage" />
        <dc:title />
      </cc:Work>
    </rdf:RDF>
  </metadata>
  <g
     id="layer1"
     inkscape:groupmode="layer"
     inkscape:label="Layer 1">
    <rect
       ry="0"
       y="208.75781"
       x="131.51132"
       height="436.32858"
       width="381.64896"
       id="rect2985"
       style="fill:#ececec;stroke:#000000;stroke-width:2;stroke-linecap:butt;stroke-linejoin:miter;stroke-opacity:1;stroke-miterlimit:4;stroke-dasharray:none" />
    <rect
       style="fill:#ececec;stroke:#000000;stroke-width:2;stroke-linecap:butt;stroke-linejoin:miter;stroke-opacity:1;stroke-miterlimit:4;stroke-dasharray:none"
       id="rect4846"
       width="106.10204"
       height="152.21022"
       x="292.14194"
       y="350.81699" />
    <path
       sodipodi:nodetypes="cc"
       inkscape:connector-curvature="0"
       id="path2997"
       d="m 133.08522,358.78839 159.17806,47.14286"
       style="fill:none;stroke:#000000;stroke-width:1.987;stroke-linecap:butt;stroke-linejoin:miter;stroke-opacity:1;marker-end:url(#Arrow1Lend);stroke-miterlimit:4;stroke-dasharray:none" />
    <path
       sodipodi:nodetypes="cc"
       inkscape:connector-curvature="0"
       id="path4791"
       d="M 131.51132,529.87288 292.26328,450.37796"
       style="fill:none;stroke:#000000;stroke-width:1.987;stroke-linecap:butt;stroke-linejoin:miter;stroke-opacity:1;marker-end:url(#Arrow1Lend);stroke-miterlimit:4;stroke-dasharray:none" />
    <g
       transform="translate(3.220166,141.71099)"
       id="g4799">
      <path
         sodipodi:nodetypes="cc"
         inkscape:connector-curvature="0"
         id="path4793"
         d="M 395.97978,302.12378 509.94011,301.6187"
         style="fill:none;stroke:#000000;stroke-width:1.987;stroke-linecap:butt;stroke-linejoin:miter;stroke-opacity:1;marker-end:url(#Arrow1Lend);stroke-miterlimit:4;stroke-dasharray:none" />
      <text
         sodipodi:linespacing="125%"
         id="text4795"
         y="292.63019"
         x="424.07727"
         style="font-size:40px;font-style:normal;font-weight:normal;line-height:125%;letter-spacing:0px;word-spacing:0px;fill:#000000;fill-opacity:1;stroke:none;font-family:Sans"
         xml:space="preserve"><tspan
           y="292.63019"
           x="424.07727"
           id="tspan4797"
           sodipodi:role="line">Q</tspan></text>
      <path
         style="fill:none;stroke:#000000;stroke-width:1.987;stroke-linecap:butt;stroke-linejoin:miter;stroke-opacity:1;marker-end:url(#Arrow1Lend);stroke-miterlimit:4;stroke-dasharray:none"
         d="m 509.94011,301.6187 199.67462,-0.50508"
         id="path4881"
         inkscape:connector-curvature="0"
         sodipodi:nodetypes="cc" />
    </g>
    <text
       xml:space="preserve"
       style="font-size:61.03498459px;font-style:normal;font-weight:normal;line-height:125%;letter-spacing:0px;word-spacing:0px;fill:#000000;fill-opacity:1;stroke:none;font-family:Sans"
       x="139.65852"
       y="259.96194"
       id="text4848"
       sodipodi:linespacing="125%"
       transform="scale(0.98176067,1.0185782)"><tspan
         style="font-weight:bold"
         sodipodi:role="line"
         id="tspan4850"
         x="139.65852"
         y="259.96194">S<tspan
   id="tspan4854"
   style="font-size:39.67329788px;font-weight:bold;baseline-shift:sub">f</tspan></tspan></text>
    <path
       sodipodi:nodetypes="cc"
       style="fill:none;stroke:#000000;stroke-width:1.987;stroke-linecap:butt;stroke-linejoin:miter;stroke-opacity:1;marker-end:url(#Arrow1Lend);stroke-miterlimit:4;stroke-dasharray:none"
       d="m 18.799507,358.78839 114.285713,0"
       id="path4856"
       inkscape:connector-curvature="0" />
    <text
       xml:space="preserve"
       style="font-size:40px;font-style:normal;font-weight:normal;line-height:125%;letter-spacing:0px;word-spacing:0px;fill:#000000;fill-opacity:1;stroke:none;font-family:Sans"
       x="24.3503"
       y="346.66656"
       id="text4858"
       sodipodi:linespacing="125%"><tspan
         sodipodi:role="line"
         id="tspan4860"
         x="24.3503"
         y="346.66656">f, m</tspan></text>
    <path
       sodipodi:nodetypes="cc"
       style="fill:none;stroke:#000000;stroke-width:1.98699999;stroke-linecap:butt;stroke-linejoin:miter;stroke-miterlimit:4;stroke-opacity:1;stroke-dasharray:none;marker-end:url(#Arrow1Lend)"
       d="M 18.799507,530.37796 131.51132,529.87288"
       id="path4866"
       inkscape:connector-curvature="0" />
    <text
       sodipodi:linespacing="125%"
       id="text4872"
       y="427.19833"
       x="554.80182"
       style="font-size:40px;font-style:normal;font-weight:normal;line-height:125%;letter-spacing:0px;word-spacing:0px;fill:#000000;fill-opacity:1;stroke:none;font-family:Sans"
       xml:space="preserve"><tspan
         y="427.19833"
         x="554.80182"
         id="tspan4874"
         sodipodi:role="line">F<tspan
   id="tspan4879"
   style="font-size:65.00091553%;baseline-shift:super">-1</tspan>(Q)</tspan></text>
    <g
       id="g3140"
       transform="translate(48.487322,-47.477173)">
      <g
         id="g3246"
         transform="matrix(0.74505924,0,0,0.74505924,-253.54016,359.41174)">
        <g
           id="g3248"
           transform="matrix(1.0629921,0,0,-1.0629921,-186.02362,789.27165)"
           xml:space="preserve"
           stroke-miterlimit="10.433"
           font-style="normal"
           font-variant="normal"
           font-weight="normal"
           font-stretch="normal"
           font-size-adjust="none"
           letter-spacing="normal"
           word-spacing="normal"
           style="font-style:normal;font-variant:normal;font-weight:normal;font-stretch:normal;letter-spacing:normal;word-spacing:normal;text-anchor:start;fill:none;stroke:#000000;stroke-linecap:butt;stroke-linejoin:miter;stroke-miterlimit:10.43299961;stroke-opacity:1;stroke-dasharray:none;stroke-dashoffset:0"><path
             d="m 486.8,434.54 0.23,0.36 0.23,0.33 0.22,0.31 0.22,0.29 0.22,0.28 0.22,0.25 0.22,0.24 0.22,0.22 0.21,0.2 0.21,0.19 0.21,0.17 0.2,0.16 0.21,0.14 0.2,0.13 0.21,0.12 0.19,0.11 0.2,0.09 0.2,0.09 0.19,0.07 0.2,0.07 0.19,0.06 0.19,0.05 0.18,0.04 0.19,0.03 0.18,0.03 0.19,0.03 0.36,0.04 0.35,0.02 0.35,0.02 c 0.6,0.05 0.64,0.89 0.64,0.96 0,0.39 -0.25,0.59 -0.64,0.59 -1.3,0 -2.75,-0.16 -4.09,-0.16 -1.64,0 -3.35,0.16 -4.94,0.16 -0.3,0 -0.94,0 -0.94,-0.95 0,-0.55 0.46,-0.6 0.8,-0.6 1.34,-0.09 2.3,-0.59 2.3,-1.64 0,-0.75 -0.75,-1.84 -0.75,-1.89 l -15.3,-24.31 -3.39,26.34 c 0,0.85 1.14,1.5 3.44,1.5 0.7,0 1.25,0 1.25,1 0,0.44 -0.41,0.55 -0.71,0.55 -1.98,0 -4.14,-0.16 -6.17,-0.16 -0.9,0 -1.84,0.05 -2.75,0.05 -0.89,0 -1.84,0.11 -2.69,0.11 -0.34,0 -0.93,0 -0.93,-0.95 0,-0.6 0.43,-0.6 1.23,-0.6 2.8,0 2.84,-0.45 3,-1.68 l 3.92,-30.75 c 0.16,-1 0.36,-1.14 1,-1.14 0.8,0 1,0.25 1.41,0.89 z"
             id="path3250"
             inkscape:connector-curvature="0"
             style="fill:#000000;stroke-width:0" /><path
             d="m 497.43,406.25 0,0.3 -0.01,0.3 -0.02,0.29 -0.03,0.28 -0.03,0.27 -0.04,0.26 -0.04,0.26 -0.05,0.24 -0.06,0.24 -0.07,0.23 -0.07,0.22 -0.07,0.21 -0.09,0.2 -0.09,0.19 -0.09,0.19 -0.1,0.17 -0.11,0.16 -0.11,0.16 -0.12,0.14 -0.12,0.13 -0.13,0.13 -0.13,0.11 -0.14,0.1 -0.15,0.1 -0.14,0.08 -0.16,0.07 -0.16,0.06 -0.16,0.05 -0.17,0.04 -0.17,0.03 -0.18,0.01 -0.18,0.01 c -1.64,0 -2.64,-1.25 -2.64,-2.64 0,-1.34 1,-2.64 2.64,-2.64 0.6,0 1.25,0.2 1.75,0.64 0.14,0.11 0.21,0.16 0.25,0.16 0.05,0 0.1,-0.05 0.1,-0.75 0,-3.69 -1.74,-6.68 -3.39,-8.32 -0.55,-0.54 -0.55,-0.65 -0.55,-0.79 0,-0.36 0.25,-0.55 0.5,-0.55 0.55,0 4.53,3.83 4.53,9.66 z"
             id="path3252"
             inkscape:connector-curvature="0"
             style="fill:#000000;stroke-width:0" /><path
             d="m 520.5,407.59 -0.08,0 -0.09,0 -0.17,0 -0.16,0 -0.15,-0.01 -0.15,-0.01 -0.15,-0.02 -0.16,-0.02 -0.07,-0.02 -0.08,-0.01 -0.07,-0.02 -0.08,-0.02 -0.08,-0.03 -0.08,-0.02 -0.09,-0.03 -0.08,-0.03 -0.09,-0.04 -0.09,-0.04 -0.09,-0.04 -0.09,-0.04 -0.1,-0.05 -0.1,-0.05 -0.1,-0.06 -0.11,-0.06 -0.11,-0.06 -0.11,-0.07 c -0.41,-0.23 -1.59,-1.05 -1.59,-1.64 0,-0.34 0.25,-0.34 0.5,-0.34 3.32,-0.16 5.37,-0.6 10.35,-2.35 3.44,-1.25 6.97,-2.48 10.91,-2.48 5.83,0 10.66,5.12 10.66,7.17 0,0.25 -0.19,0.39 -0.44,0.39 -0.5,0 -1.55,-0.39 -2.34,-0.94 -1.14,-0.75 -1.25,-1.09 -1.5,-1.75 -0.69,-1.98 -1.74,-2.14 -3.1,-2.14 -3.28,0 -5.51,0.8 -12.7,3.24 8.63,2.43 19.48,11.06 19.48,23.07 0,6.77 -3.68,12.25 -11.01,12.25 -10.16,0 -21.97,-10.4 -21.97,-20.78 0,-5.28 3.14,-9.26 8.67,-9.26 5.03,0 10.72,3.29 10.72,4.48 0,0.3 -0.36,0.3 -0.55,0.3 -0.7,0 -1.54,-0.5 -2.25,-0.85 -2.04,-1.14 -4.14,-1.18 -4.62,-1.18 -4.49,0 -7.74,3.48 -7.74,8.61 0,6.23 5.65,15.95 14.46,15.95 6.28,0 10.06,-4.98 10.06,-11.61 0,-4.94 -2.05,-10.56 -6.78,-14.75 -3.24,-2.94 -6.88,-4.64 -15.03,-4.64 z"
             id="path3254"
             inkscape:connector-curvature="0"
             style="fill:#000000;stroke-width:0" /></g>      </g>
      <g
         id="g3420"
         transform="matrix(0.63751171,0,0,0.63751171,29.864884,181.79166)">
        <g
           transform="translate(-178.797,297.99499)"
           id="g3344">
          <g
             style="font-style:normal;font-variant:normal;font-weight:normal;font-stretch:normal;letter-spacing:normal;word-spacing:normal;text-anchor:start;fill:none;stroke:#000000;stroke-linecap:butt;stroke-linejoin:miter;stroke-miterlimit:10.43299961;stroke-opacity:1;stroke-dasharray:none;stroke-dashoffset:0"
             id="g3346"
             transform="matrix(1.0629921,0,0,-1.0629921,-186.02362,789.27165)"
             xml:space="preserve"
             stroke-miterlimit="10.433"
             font-style="normal"
             font-variant="normal"
             font-weight="normal"
             font-stretch="normal"
             font-size-adjust="none"
             letter-spacing="normal"
             word-spacing="normal"><path
               style="fill:#000000;stroke-width:0"
               inkscape:connector-curvature="0"
               d="m 470.61,422.39 h 4.83 c 3.75,0 4.14,-0.8 4.14,-2.24 0,-0.36 0,-0.95 -0.34,-2.44 -0.11,-0.25 -0.16,-0.45 -0.16,-0.56 0,-0.39 0.3,-0.59 0.6,-0.59 0.5,0 0.5,0.15 0.75,1.05 l 2.75,10.81 c 0.14,0.54 0.14,0.65 0.14,0.79 0,0.1 -0.1,0.55 -0.6,0.55 -0.5,0 -0.54,-0.25 -0.75,-1.05 -1.04,-3.87 -2.18,-4.78 -6.42,-4.78 h -4.53 l 3.19,12.66 c 0.43,1.75 0.5,1.94 2.68,1.94 h 6.58 c 6.13,0 7.27,-1.64 7.27,-5.47 0,-1.16 0,-1.35 -0.14,-2.7 -0.11,-0.65 -0.11,-0.74 -0.11,-0.9 0,-0.25 0.15,-0.59 0.61,-0.59 0.54,0 0.59,0.3 0.69,1.25 l 1,8.61 c 0.15,1.34 -0.1,1.34 -1.35,1.34 h -24.4 c -1,0 -1.5,0 -1.5,-1 0,-0.54 0.45,-0.54 1.39,-0.54 1.84,0 3.23,0 3.23,-0.89 0,-0.21 0,-0.3 -0.25,-1.21 l -6.56,-26.34 c -0.5,-1.95 -0.61,-2.34 -4.55,-2.34 -0.84,0 -1.39,0 -1.39,-0.96 0,-0.59 0.59,-0.59 0.75,-0.59 1.44,0 5.13,0.16 6.58,0.16 1.64,0 5.78,-0.16 7.42,-0.16 0.45,0 1.05,0 1.05,0.95 0,0.39 -0.3,0.49 -0.3,0.55 -0.16,0.05 -0.25,0.05 -1.39,0.05 -1.11,0 -1.36,0 -2.59,0.09 -1.46,0.16 -1.6,0.36 -1.6,1 0,0.09 0,0.41 0.19,1.14 z"
               id="path3348" /><path
               style="fill:#000000;stroke-width:0"
               inkscape:connector-curvature="0"
               d="m 511,394.25 0,0.02 0,0.03 0,0.01 0,0.02 0,0.01 -0.01,0.02 0,0.01 -0.01,0.02 -0.01,0.02 -0.01,0.02 -0.01,0.02 -0.02,0.03 -0.01,0.02 -0.02,0.03 -0.02,0.03 -0.03,0.03 -0.02,0.03 -0.03,0.04 -0.02,0.02 -0.01,0.02 -0.02,0.02 -0.02,0.02 -0.02,0.02 -0.02,0.03 -0.02,0.02 -0.02,0.02 -0.02,0.03 -0.03,0.02 -0.02,0.03 -0.03,0.03 -0.03,0.03 -0.02,0.03 -0.03,0.03 -0.03,0.03 -0.03,0.03 -0.03,0.03 -0.04,0.04 -0.03,0.03 -0.04,0.04 -0.03,0.03 -0.04,0.04 -0.04,0.04 c -6.22,6.28 -7.81,15.69 -7.81,23.31 0,8.67 1.89,17.35 8.01,23.56 0.64,0.61 0.64,0.71 0.64,0.86 0,0.35 -0.18,0.49 -0.48,0.49 -0.5,0 -4.98,-3.38 -7.92,-9.7 -2.55,-5.49 -3.14,-11.02 -3.14,-15.21 0,-3.89 0.54,-9.9 3.28,-15.54 2.98,-6.13 7.28,-9.36 7.78,-9.36 0.3,0 0.48,0.14 0.48,0.5 z"
               id="path3350" /><path
               style="fill:#000000;stroke-width:0"
               inkscape:connector-curvature="0"
               d="m 545.12,434.54 0.23,0.36 0.22,0.33 0.23,0.31 0.22,0.29 0.22,0.28 0.22,0.25 0.22,0.24 0.21,0.22 0.21,0.2 0.21,0.19 0.21,0.17 0.21,0.16 0.21,0.14 0.2,0.13 0.2,0.12 0.2,0.11 0.2,0.09 0.2,0.09 0.19,0.07 0.19,0.07 0.19,0.06 0.19,0.05 0.19,0.04 0.19,0.03 0.18,0.03 0.18,0.03 0.36,0.04 0.36,0.02 0.35,0.02 c 0.59,0.05 0.64,0.89 0.64,0.96 0,0.39 -0.25,0.59 -0.64,0.59 -1.3,0 -2.75,-0.16 -4.1,-0.16 -1.64,0 -3.34,0.16 -4.93,0.16 -0.3,0 -0.94,0 -0.94,-0.95 0,-0.55 0.45,-0.6 0.8,-0.6 1.34,-0.09 2.29,-0.59 2.29,-1.64 0,-0.75 -0.75,-1.84 -0.75,-1.89 l -15.29,-24.31 -3.39,26.34 c 0,0.85 1.14,1.5 3.43,1.5 0.71,0 1.25,0 1.25,1 0,0.44 -0.4,0.55 -0.7,0.55 -1.98,0 -4.14,-0.16 -6.17,-0.16 -0.91,0 -1.85,0.05 -2.75,0.05 -0.89,0 -1.85,0.11 -2.69,0.11 -0.34,0 -0.94,0 -0.94,-0.95 0,-0.6 0.44,-0.6 1.24,-0.6 2.79,0 2.84,-0.45 3,-1.68 l 3.92,-30.75 c 0.16,-1 0.36,-1.14 1,-1.14 0.8,0 1,0.25 1.41,0.89 z"
               id="path3352" /><path
               style="fill:#000000;stroke-width:0"
               inkscape:connector-curvature="0"
               d="m 568.43,418.65 -0.01,0.37 0,0.39 -0.01,0.39 -0.01,0.41 -0.04,0.84 -0.06,0.88 -0.08,0.92 -0.11,0.95 -0.14,0.97 -0.16,1.01 -0.2,1.02 -0.23,1.03 -0.26,1.05 -0.31,1.06 -0.35,1.07 -0.39,1.07 -0.21,0.53 -0.23,0.53 -0.24,0.53 -0.24,0.53 c -2.99,6.12 -7.27,9.36 -7.77,9.36 -0.3,0 -0.5,-0.19 -0.5,-0.49 0,-0.15 0,-0.25 0.94,-1.15 4.89,-4.92 7.73,-12.85 7.73,-23.27 0,-8.51 -1.84,-17.28 -8.03,-23.56 -0.64,-0.59 -0.64,-0.7 -0.64,-0.84 0,-0.3 0.2,-0.5 0.5,-0.5 0.5,0 4.97,3.39 7.92,9.71 2.53,5.47 3.13,11 3.13,15.19 z"
               id="path3354" /><path
               style="fill:#000000;stroke-width:0"
               inkscape:connector-curvature="0"
               d="m 583.46,406.25 0,0.3 -0.01,0.3 -0.02,0.29 -0.03,0.28 -0.03,0.27 -0.04,0.26 -0.04,0.26 -0.05,0.24 -0.06,0.24 -0.06,0.23 -0.08,0.22 -0.07,0.21 -0.09,0.2 -0.08,0.19 -0.1,0.19 -0.1,0.17 -0.11,0.16 -0.11,0.16 -0.12,0.14 -0.12,0.13 -0.13,0.13 -0.13,0.11 -0.14,0.1 -0.14,0.1 -0.15,0.08 -0.16,0.07 -0.16,0.06 -0.16,0.05 -0.17,0.04 -0.17,0.03 -0.18,0.01 -0.18,0.01 c -1.64,0 -2.64,-1.25 -2.64,-2.64 0,-1.34 1,-2.64 2.64,-2.64 0.6,0 1.25,0.2 1.75,0.64 0.14,0.11 0.21,0.16 0.25,0.16 0.05,0 0.1,-0.05 0.1,-0.75 0,-3.69 -1.74,-6.68 -3.39,-8.32 -0.55,-0.54 -0.55,-0.65 -0.55,-0.79 0,-0.36 0.25,-0.55 0.5,-0.55 0.55,0 4.53,3.83 4.53,9.66 z"
               id="path3356" /><path
               style="fill:#000000;stroke-width:0"
               inkscape:connector-curvature="0"
               d="m 610.52,422.39 h 4.83 c 3.75,0 4.14,-0.8 4.14,-2.24 0,-0.36 0,-0.95 -0.34,-2.44 -0.11,-0.25 -0.16,-0.45 -0.16,-0.56 0,-0.39 0.3,-0.59 0.6,-0.59 0.5,0 0.5,0.15 0.75,1.05 l 2.75,10.81 c 0.14,0.54 0.14,0.65 0.14,0.79 0,0.1 -0.1,0.55 -0.6,0.55 -0.5,0 -0.54,-0.25 -0.75,-1.05 -1.04,-3.87 -2.18,-4.78 -6.42,-4.78 h -4.53 l 3.19,12.66 c 0.43,1.75 0.5,1.94 2.68,1.94 h 6.58 c 6.13,0 7.27,-1.64 7.27,-5.47 0,-1.16 0,-1.35 -0.14,-2.7 -0.11,-0.65 -0.11,-0.74 -0.11,-0.9 0,-0.25 0.15,-0.59 0.61,-0.59 0.54,0 0.59,0.3 0.69,1.25 l 1,8.61 c 0.15,1.34 -0.1,1.34 -1.35,1.34 h -24.4 c -1,0 -1.5,0 -1.5,-1 0,-0.54 0.45,-0.54 1.39,-0.54 1.84,0 3.23,0 3.23,-0.89 0,-0.21 0,-0.3 -0.25,-1.21 l -6.56,-26.34 c -0.5,-1.95 -0.61,-2.34 -4.55,-2.34 -0.84,0 -1.39,0 -1.39,-0.96 0,-0.59 0.59,-0.59 0.75,-0.59 1.44,0 5.13,0.16 6.58,0.16 1.64,0 5.78,-0.16 7.42,-0.16 0.45,0 1.05,0 1.05,0.95 0,0.39 -0.3,0.49 -0.3,0.55 -0.16,0.05 -0.25,0.05 -1.39,0.05 -1.11,0 -1.36,0 -2.59,0.09 -1.46,0.16 -1.6,0.36 -1.6,1 0,0.09 0,0.41 0.19,1.14 z"
               id="path3358" /><path
               style="fill:#000000;stroke-width:0"
               inkscape:connector-curvature="0"
               d="m 650.91,394.25 0,0.02 0,0.03 0,0.01 -0.01,0.02 0,0.01 0,0.02 -0.01,0.01 -0.01,0.02 0,0.02 -0.01,0.02 -0.02,0.02 -0.01,0.03 -0.02,0.02 -0.02,0.03 -0.02,0.03 -0.02,0.03 -0.03,0.03 -0.03,0.04 -0.01,0.02 -0.02,0.02 -0.02,0.02 -0.01,0.02 -0.02,0.02 -0.02,0.03 -0.02,0.02 -0.03,0.02 -0.02,0.03 -0.02,0.02 -0.03,0.03 -0.02,0.03 -0.03,0.03 -0.03,0.03 -0.03,0.03 -0.03,0.03 -0.03,0.03 -0.03,0.03 -0.03,0.04 -0.04,0.03 -0.03,0.04 -0.04,0.03 -0.04,0.04 -0.03,0.04 c -6.22,6.28 -7.82,15.69 -7.82,23.31 0,8.67 1.9,17.35 8.02,23.56 0.64,0.61 0.64,0.71 0.64,0.86 0,0.35 -0.19,0.49 -0.48,0.49 -0.5,0 -4.99,-3.38 -7.93,-9.7 -2.54,-5.49 -3.14,-11.02 -3.14,-15.21 0,-3.89 0.55,-9.9 3.29,-15.54 2.98,-6.13 7.28,-9.36 7.78,-9.36 0.29,0 0.48,0.14 0.48,0.5 z"
               id="path3360" /><path
               style="fill:#000000;stroke-width:0"
               inkscape:connector-curvature="0"
               d="m 664.85,407.59 -0.09,0 -0.08,0 -0.17,0 -0.16,0 -0.15,-0.01 -0.16,-0.01 -0.15,-0.02 -0.15,-0.02 -0.07,-0.02 -0.08,-0.01 -0.08,-0.02 -0.08,-0.02 -0.08,-0.03 -0.08,-0.02 -0.08,-0.03 -0.08,-0.03 -0.09,-0.04 -0.09,-0.04 -0.09,-0.04 -0.09,-0.04 -0.1,-0.05 -0.1,-0.05 -0.1,-0.06 -0.11,-0.06 -0.11,-0.06 -0.11,-0.07 c -0.41,-0.23 -1.6,-1.05 -1.6,-1.64 0,-0.34 0.25,-0.34 0.5,-0.34 3.33,-0.16 5.38,-0.6 10.36,-2.35 3.44,-1.25 6.97,-2.48 10.91,-2.48 5.83,0 10.66,5.12 10.66,7.17 0,0.25 -0.19,0.39 -0.44,0.39 -0.5,0 -1.55,-0.39 -2.35,-0.94 -1.14,-0.75 -1.25,-1.09 -1.5,-1.75 -0.68,-1.98 -1.73,-2.14 -3.09,-2.14 -3.28,0 -5.52,0.8 -12.7,3.24 8.62,2.43 19.48,11.06 19.48,23.07 0,6.77 -3.69,12.25 -11.01,12.25 -10.16,0 -21.97,-10.4 -21.97,-20.78 0,-5.28 3.14,-9.26 8.67,-9.26 5.03,0 10.72,3.29 10.72,4.48 0,0.3 -0.36,0.3 -0.55,0.3 -0.7,0 -1.55,-0.5 -2.25,-0.85 -2.05,-1.14 -4.14,-1.18 -4.62,-1.18 -4.49,0 -7.74,3.48 -7.74,8.61 0,6.23 5.64,15.95 14.45,15.95 6.29,0 10.07,-4.98 10.07,-11.61 0,-4.94 -2.05,-10.56 -6.78,-14.75 -3.24,-2.94 -6.88,-4.64 -15.04,-4.64 z"
               id="path3362" /><path
               style="fill:#000000;stroke-width:0"
               inkscape:connector-curvature="0"
               d="m 708.81,418.65 0,0.37 0,0.39 -0.01,0.39 -0.02,0.41 -0.04,0.84 -0.06,0.88 -0.08,0.92 -0.1,0.95 -0.14,0.97 -0.16,1.01 -0.2,1.02 -0.23,1.03 -0.27,1.05 -0.3,1.06 -0.35,1.07 -0.39,1.07 -0.22,0.53 -0.22,0.53 -0.24,0.53 -0.25,0.53 c -2.98,6.12 -7.26,9.36 -7.76,9.36 -0.3,0 -0.5,-0.19 -0.5,-0.49 0,-0.15 0,-0.25 0.93,-1.15 4.89,-4.92 7.74,-12.85 7.74,-23.27 0,-8.51 -1.85,-17.28 -8.03,-23.56 -0.64,-0.59 -0.64,-0.7 -0.64,-0.84 0,-0.3 0.2,-0.5 0.5,-0.5 0.5,0 4.96,3.39 7.92,9.71 2.53,5.47 3.12,11 3.12,15.19 z"
               id="path3364" /></g>        </g>
      </g>
    </g>
    <g
       id="g3984"
       transform="translate(11.428571,82.857143)">
      <g
         id="content"
         transform="matrix(1.0629921,0,0,-1.0629921,-186.02362,789.27165)"
         xml:space="preserve"
         stroke-miterlimit="10.433"
         font-style="normal"
         font-variant="normal"
         font-weight="normal"
         font-stretch="normal"
         font-size-adjust="none"
         letter-spacing="normal"
         word-spacing="normal"
         style="font-style:normal;font-variant:normal;font-weight:normal;font-stretch:normal;letter-spacing:normal;word-spacing:normal;text-anchor:start;fill:none;stroke:#000000;stroke-linecap:butt;stroke-linejoin:miter;stroke-miterlimit:10.43299961;stroke-opacity:1;stroke-dasharray:none;stroke-dashoffset:0"><path
           d="m 487.66,440.82 0,0.02 0,0.02 0,0.01 -0.01,0.02 0,0.02 0,0.02 -0.01,0.02 0,0.02 -0.01,0.02 -0.01,0.02 -0.01,0.02 -0.01,0.02 -0.01,0.02 -0.01,0.02 -0.01,0.02 -0.02,0.02 -0.02,0.02 -0.01,0.02 -0.02,0.02 -0.02,0.02 -0.02,0.01 -0.03,0.02 -0.02,0.01 -0.03,0.02 -0.02,0.01 -0.03,0.01 -0.02,0.01 -0.01,0 -0.02,0.01 -0.02,0 -0.01,0 -0.02,0.01 -0.02,0 -0.02,0 -0.02,0 -0.02,0 -0.02,0 -0.02,0 c -0.25,0 -0.31,-0.04 -0.9,-0.75 l -2.39,-2.84 c -1.3,2.34 -3.89,3.59 -7.13,3.59 -6.33,0 -12.3,-5.73 -12.3,-11.76 0,-4.03 2.65,-6.33 5.18,-7.06 l 5.32,-1.41 c 1.85,-0.44 4.6,-1.19 4.6,-5.28 0,-4.49 -4.1,-9.16 -8.97,-9.16 -3.19,0 -8.72,1.1 -8.72,7.27 0,1.2 0.25,2.39 0.3,2.69 0.04,0.2 0.09,0.25 0.09,0.35 0,0.5 -0.34,0.55 -0.59,0.55 -0.25,0 -0.35,-0.05 -0.5,-0.2 -0.21,-0.2 -2.99,-11.56 -2.99,-11.7 0,-0.3 0.25,-0.5 0.55,-0.5 0.25,0 0.3,0.04 0.89,0.75 l 2.45,2.82 c 2.14,-2.89 5.52,-3.57 8.41,-3.57 6.78,0 12.66,6.62 12.66,12.79 0,3.44 -1.69,5.14 -2.44,5.83 -1.14,1.16 -1.89,1.34 -6.33,2.5 -1.09,0.3 -2.89,0.8 -3.34,0.89 -1.35,0.45 -3.03,1.89 -3.03,4.53 0,4.05 3.98,8.28 8.71,8.28 4.15,0 7.18,-2.14 7.18,-7.73 0,-1.59 -0.21,-2.49 -0.21,-2.78 0,-0.05 0,-0.5 0.61,-0.5 0.5,0 0.55,0.15 0.74,1 z"
           id="path3987"
           inkscape:connector-curvature="0"
           style="fill:#000000;stroke-width:0" /><path
           d="m 500.31,412.53 h 3.4 c 0.71,0 1.16,0 1.16,0.76 0,0.49 -0.45,0.49 -1.08,0.49 h -3.25 c 0.82,4.42 1.08,6.03 1.36,7.04 0.17,0.77 0.94,1.5 1.78,1.5 0.03,0 0.97,0 1.64,-0.42 -1.43,-0.45 -1.53,-1.72 -1.53,-1.92 0,-0.77 0.6,-1.28 1.39,-1.28 0.94,0 1.99,0.8 1.99,2.12 0,1.6 -1.71,2.47 -3.49,2.47 -1.53,0 -3.23,-0.87 -4.18,-2.61 -0.69,-1.29 -0.97,-2.86 -1.71,-6.9 h -2.75 c -0.7,0 -1.15,0 -1.15,-0.77 0,-0.48 0.45,-0.48 1.07,-0.48 h 2.58 c -0.03,-0.22 -2.22,-12.75 -3.06,-16.49 -0.17,-0.76 -0.77,-3.4 -2.44,-3.4 -0.03,0 -0.87,0 -1.53,0.4 1.42,0.46 1.53,1.72 1.53,1.92 0,0.77 -0.59,1.29 -1.39,1.29 -0.94,0 -1.98,-0.8 -1.98,-2.13 0,-1.56 1.64,-2.47 3.37,-2.47 2.24,0 3.77,2.3 4.19,3.06 1.25,2.35 2.05,6.63 2.13,7.05 z"
           id="path3989"
           inkscape:connector-curvature="0"
           style="fill:#000000;stroke-width:0" /><path
           d="m 519.35,400.84 -0.76,-3.11 c -0.11,-0.32 -0.24,-0.85 -0.25,-1 -0.03,-0.07 -1.37,-2.43 -3.52,-2.43 -0.95,0 -2.04,0.34 -2.04,2.14 0,1.29 0.65,2.98 1.37,4.7 0.25,0.66 0.41,0.97 0.41,1.39 0,1.22 -1.17,2.2 -2.72,2.2 -2.63,0 -4.02,-3.18 -4.02,-3.85 0,-0.36 0.41,-0.36 0.54,-0.36 0.42,0 0.43,0.12 0.56,0.5 0.5,1.67 1.67,2.86 2.81,2.86 0.49,0 0.75,-0.27 0.75,-0.94 0,-0.5 -0.09,-0.78 -0.42,-1.5 -1.35,-3.32 -1.35,-3.99 -1.35,-4.66 0,-2.78 2.36,-3.34 3.99,-3.34 1.39,0 2.67,0.7 3.61,1.72 0.58,-1.6 2.45,-1.72 2.89,-1.72 0.87,0 1.58,0.44 2.17,1.36 0.67,0.97 1.02,2.36 1.02,2.51 0,0.35 -0.42,0.35 -0.52,0.35 -0.45,0 -0.47,-0.16 -0.59,-0.55 -0.49,-1.92 -1.13,-2.81 -1.97,-2.81 -0.71,0 -1,0.54 -1,1.31 0,0.53 0.76,3.51 1.73,7.37 0.13,0.43 0.13,0.47 0.13,0.6 0,0.54 -0.44,0.87 -0.92,0.87 -0.99,0 -1.19,-0.87 -1.36,-1.54 z"
           id="path3991"
           inkscape:connector-curvature="0"
           style="fill:#000000;stroke-width:0" /></g>    </g>
    <g
       id="g4107"
       transform="matrix(0.82034818,0,0,0.70359167,-81.639659,106.32429)">
      <g
         word-spacing="normal"
         letter-spacing="normal"
         font-size-adjust="none"
         font-stretch="normal"
         font-weight="normal"
         font-variant="normal"
         font-style="normal"
         stroke-miterlimit="10.433"
         xml:space="preserve"
         transform="matrix(1.0629921,0,0,-1.0629921,-186.02362,789.27165)"
         id="g4109"
         style="font-style:normal;font-variant:normal;font-weight:normal;font-stretch:normal;letter-spacing:normal;word-spacing:normal;text-anchor:start;fill:none;stroke:#000000;stroke-linecap:butt;stroke-linejoin:miter;stroke-miterlimit:10.43299961;stroke-opacity:1;stroke-dasharray:none;stroke-dashoffset:0"><path
           id="path4111"
           d="m 473.8,426.12 h 4.28 c 1,0 1.5,0 1.5,1 0,0.55 -0.5,0.55 -1.34,0.55 h -4.14 l 1.04,5.69 c 0.21,1.04 0.91,4.57 1.21,5.17 0.45,0.95 1.29,1.7 2.34,1.7 0.19,0 1.49,0 2.44,-0.91 -2.19,-0.18 -2.69,-1.93 -2.69,-2.68 0,-1.14 0.89,-1.74 1.85,-1.74 1.29,0 2.73,1.1 2.73,2.99 0,2.29 -2.3,3.43 -4.33,3.43 -1.7,0 -4.84,-0.89 -6.33,-5.82 -0.29,-1.05 -0.45,-1.55 -1.64,-7.83 h -3.43 c -0.96,0 -1.5,0 -1.5,-0.94 0,-0.61 0.45,-0.61 1.39,-0.61 h 3.29 l -3.75,-19.67 c -0.89,-4.83 -1.73,-9.38 -4.33,-9.38 -0.2,0 -1.43,0 -2.39,0.91 2.3,0.14 2.74,1.94 2.74,2.69 0,1.14 -0.89,1.75 -1.85,1.75 -1.29,0 -2.73,-1.1 -2.73,-3 0,-2.24 2.19,-3.44 4.23,-3.44 2.74,0 4.74,2.94 5.63,4.84 1.59,3.14 2.75,9.16 2.8,9.52 z"
           inkscape:connector-curvature="0"
           style="fill:#000000;stroke-width:0" /><path
           id="path4113"
           d="m 494.61,404.4 -0.01,-0.06 -0.02,-0.07 -0.02,-0.08 -0.02,-0.07 -0.02,-0.08 -0.02,-0.08 -0.02,-0.08 -0.02,-0.08 -0.04,-0.17 -0.04,-0.17 -0.04,-0.17 -0.02,-0.08 -0.02,-0.08 -0.02,-0.08 -0.02,-0.07 -0.02,-0.07 -0.02,-0.07 -0.02,-0.07 -0.01,-0.06 -0.02,-0.06 -0.02,-0.06 -0.01,-0.05 -0.01,-0.04 -0.02,-0.04 -0.01,-0.04 0,-0.01 -0.01,-0.01 0,-0.01 -0.01,-0.01 0,-0.01 -0.01,-0.01 0,0 0,0 c -0.68,-1.08 -2.07,-2.97 -4.22,-2.97 -2.41,0 -2.41,2.26 -2.41,2.89 0,2.06 0.97,4.53 1.95,7.08 0.29,0.7 0.49,1.21 0.49,1.78 0,1.81 -1.53,2.98 -3.31,2.98 -3.49,0 -5.05,-4.76 -5.05,-5.33 0,-0.45 0.48,-0.45 0.59,-0.45 0.49,0 0.52,0.17 0.63,0.56 0.83,2.86 2.37,4.25 3.72,4.25 0.59,0 0.87,-0.39 0.87,-1.22 0,-0.79 -0.28,-1.53 -0.62,-2.32 -1.88,-4.82 -1.88,-5.83 -1.88,-6.77 0,-0.59 0,-2.2 1.28,-3.31 1.02,-0.83 2.38,-1.11 3.6,-1.11 2.18,0 3.37,1.19 4.53,2.29 0.76,-2.23 3.09,-2.29 3.51,-2.29 1.19,0 2.1,0.69 2.75,1.84 0.77,1.36 1.25,3.38 1.25,3.49 0,0.45 -0.48,0.45 -0.57,0.45 -0.5,0 -0.54,-0.14 -0.79,-1.08 -0.4,-1.64 -1.07,-3.73 -2.53,-3.73 -0.9,0 -1.15,0.79 -1.15,1.7 0,0.59 0.28,1.86 0.53,2.77 0.23,0.93 0.58,2.35 0.76,3.12 l 0.8,3.11 c 0.2,0.87 0.59,2.41 0.59,2.58 0,0.69 -0.56,1.11 -1.15,1.11 -1.28,0 -1.53,-1.02 -1.81,-2.13 z"
           inkscape:connector-curvature="0"
           style="fill:#000000;stroke-width:0" /><path
           id="path4115"
           d="m 516.15,406.25 -0.01,0.3 -0.01,0.3 -0.01,0.29 -0.03,0.28 -0.03,0.27 -0.04,0.26 -0.04,0.26 -0.06,0.24 -0.05,0.24 -0.07,0.23 -0.07,0.22 -0.08,0.21 -0.08,0.2 -0.09,0.19 -0.09,0.19 -0.1,0.17 -0.11,0.16 -0.11,0.16 -0.12,0.14 -0.12,0.13 -0.13,0.13 -0.13,0.11 -0.14,0.1 -0.15,0.1 -0.15,0.08 -0.15,0.07 -0.16,0.06 -0.16,0.05 -0.17,0.04 -0.17,0.03 -0.18,0.01 -0.18,0.01 c -1.64,0 -2.64,-1.25 -2.64,-2.64 0,-1.34 1,-2.64 2.64,-2.64 0.59,0 1.25,0.2 1.75,0.64 0.14,0.11 0.2,0.16 0.25,0.16 0.05,0 0.09,-0.05 0.09,-0.75 0,-3.69 -1.73,-6.68 -3.39,-8.32 -0.54,-0.54 -0.54,-0.65 -0.54,-0.79 0,-0.36 0.25,-0.55 0.5,-0.55 0.54,0 4.53,3.83 4.53,9.66 z"
           inkscape:connector-curvature="0"
           style="fill:#000000;stroke-width:0" /><path
           id="path4117"
           d="m 532.51,409.14 -0.02,-0.07 -0.01,-0.08 -0.02,-0.07 -0.02,-0.08 -0.03,-0.16 -0.04,-0.16 -0.04,-0.16 -0.03,-0.16 -0.04,-0.16 -0.04,-0.16 -0.01,-0.08 -0.02,-0.07 -0.02,-0.07 -0.01,-0.07 -0.02,-0.07 -0.01,-0.07 -0.01,-0.06 -0.02,-0.06 -0.01,-0.06 -0.01,-0.05 0,-0.05 -0.01,-0.04 -0.01,-0.04 0,-0.04 0,-0.03 -0.01,-0.02 c 0,-0.89 0.71,-1.35 1.44,-1.35 0.61,0 1.5,0.39 1.85,1.39 0.06,0.11 0.65,2.44 0.95,3.69 l 1.09,4.48 c 0.3,1.1 0.6,2.19 0.85,3.35 0.2,0.84 0.61,2.28 0.65,2.48 0.75,1.55 3.39,6.08 8.11,6.08 2.25,0 2.71,-1.84 2.71,-3.48 0,-1.25 -0.36,-2.64 -0.75,-4.14 l -1.4,-5.79 -1,-3.78 c -0.2,-1 -0.65,-2.68 -0.65,-2.93 0,-0.89 0.7,-1.35 1.45,-1.35 1.55,0 1.85,1.25 2.24,2.85 0.7,2.78 2.54,10.06 3,12 0.14,0.65 2.78,6.62 8.21,6.62 2.15,0 2.69,-1.69 2.69,-3.48 0,-2.85 -2.09,-8.52 -3.09,-11.16 -0.45,-1.2 -0.64,-1.75 -0.64,-2.75 0,-2.33 1.73,-4.08 4.08,-4.08 4.68,0 6.53,7.27 6.53,7.67 0,0.5 -0.46,0.5 -0.6,0.5 -0.5,0 -0.5,-0.15 -0.75,-0.9 -0.75,-2.64 -2.34,-6.17 -5.07,-6.17 -0.86,0 -1.21,0.5 -1.21,1.64 0,1.25 0.46,2.45 0.89,3.54 0.96,2.58 3.05,8.11 3.05,10.96 0,3.23 -2,5.32 -5.73,5.32 -3.74,0 -6.27,-2.18 -8.11,-4.82 -0.07,0.65 -0.21,2.34 -1.61,3.53 -1.24,1.04 -2.83,1.29 -4.08,1.29 -4.49,0 -6.92,-3.18 -7.77,-4.32 -0.25,2.84 -2.34,4.32 -4.59,4.32 -2.28,0 -3.24,-1.93 -3.69,-2.82 -0.89,-1.75 -1.55,-4.69 -1.55,-4.85 0,-0.5 0.5,-0.5 0.61,-0.5 0.5,0 0.55,0.07 0.85,1.16 0.84,3.53 1.84,5.92 3.64,5.92 0.8,0 1.55,-0.39 1.55,-2.28 0,-1.05 -0.16,-1.61 -0.8,-4.19 z"
           inkscape:connector-curvature="0"
           style="fill:#000000;stroke-width:0" /></g>    </g>
  </g>
</svg>
